<?xml version="1.0" encoding="utf-8"?>
<svg viewBox="0 0 500 500" xmlns="http://www.w3.org/2000/svg">
  <defs>
    <linearGradient id="Dégradé_sans_nom_11" x1="169.51" y1="14.39" x2="-3.93" y2="196.85" gradientUnits="userSpaceOnUse">
      <stop offset="0" stop-color="#d311af"/>
      <stop offset="1" stop-color="#6800ba"/>
    </linearGradient>
  </defs>
  <g id="Calque_3" transform="matrix(2.4023420810699463, 0, 0, 2.2932181358337402, 39.0984001159668, 13.383494377136232)" style="">
    <path class="cls-1" d="m169.49,66.18c-.87-22.74-9.16-38.76-23.35-45.08L104.99,2.78c-14.19-6.32-31.64-1.77-49.12,12.81-15.82,13.16-30.29,33.38-40.77,56.92S-.73,120.31.08,140.88c.87,22.74,9.17,38.75,23.36,45.06l6.35,2.83c2.2.76,4.51,1.18,6.97,1.05,4.71-.22,9.49-1.48,13.85-3.24,2.79-1.14,5.55-2.47,8.2-3.96l-.09-.04c.29-.14.55-.31.83-.47.63-.34,1.23-.69,1.86-1.06.69-.41,1.39-.83,2.09-1.26.61-.4,1.23-.8,1.84-1.21.68-.46,1.37-.95,2.07-1.43.61-.44,1.23-.9,1.83-1.36.69-.52,1.37-1.04,2.05-1.6.61-.49,1.22-.98,1.82-1.49.68-.57,1.36-1.16,2.02-1.75.61-.54,1.21-1.08,1.8-1.63.67-.62,1.34-1.26,1.99-1.91.59-.58,1.18-1.16,1.79-1.76.65-.67,1.3-1.36,1.96-2.05.58-.62,1.15-1.23,1.74-1.88.65-.71,1.29-1.46,1.93-2.19.57-.67,1.14-1.32,1.7-1.99.64-.76,1.28-1.55,1.9-2.35.56-.69,1.1-1.37,1.65-2.08.62-.82,1.24-1.65,1.86-2.49.54-.71,1.07-1.43,1.6-2.16.61-.87,1.21-1.76,1.83-2.65.51-.74,1.03-1.48,1.52-2.23.62-.93,1.22-1.87,1.81-2.82.48-.76.97-1.51,1.44-2.28.6-.99,1.19-2,1.79-3.02.45-.75.89-1.51,1.33-2.27.61-1.08,1.21-2.19,1.8-3.3.4-.73.8-1.44,1.2-2.18.65-1.24,1.27-2.49,1.89-3.75.33-.63.66-1.26.96-1.91.93-1.92,1.84-3.85,2.72-5.81s1.71-3.94,2.5-5.91c.28-.66.52-1.31.77-1.98.52-1.31,1.04-2.62,1.53-3.93.04-.08.06-.15.08-.22.27-.71.5-1.41.76-2.13.41-1.18.84-2.38,1.23-3.55.27-.83.53-1.65.79-2.49.36-1.13.72-2.25,1.06-3.37.25-.86.48-1.71.71-2.56.31-1.09.62-2.17.89-3.26.23-.87.42-1.73.63-2.59.26-1.06.52-2.12.76-3.17.18-.87.36-1.73.53-2.59.21-1.04.41-2.07.6-3.1.16-.86.31-1.72.45-2.58.16-1.01.33-2.02.47-3.02.13-.86.24-1.71.34-2.55.12-.99.24-1.97.35-2.96.07-.84.14-1.67.21-2.51.08-.97.15-1.92.22-2.87.05-.82.1-1.64.12-2.45.04-.94.07-1.86.08-2.79,0-.81,0-1.6,0-2.4,0-.91-.02-1.81-.06-2.69-.03-.79-.06-1.57-.1-2.35-.05-.88-.12-1.74-.19-2.6-.05-.77-.13-1.52-.21-2.27-.1-.84-.21-1.68-.32-2.49-.1-.74-.21-1.46-.33-2.18-.15-.81-.29-1.6-.46-2.4-.14-.7-.28-1.4-.45-2.09-.07-.32-.11-.64-.2-.95l12.97,5.77c15.7,6.99,19.36,45.86-.5,90.46-18.83,42.29-47.98,65.42-64.34,61.72-.51-.12-1.04,0-1.43.35-2.54,2.27-5.21,4.44-8.19,6.11-2.81,1.57-5.89,2.5-8.95,3.43-.55.17-.6.93-.07,1.16l9.02,4.02c14.19,6.32,31.64,1.77,49.12-12.8,15.81-13.17,30.29-33.38,40.77-56.92,10.48-23.53,15.81-47.82,15.02-68.38Zm-59.88,2.6c-.17,1.13-.36,2.27-.58,3.41-.09.53-.19,1.07-.3,1.61-.2,1.02-.41,2.07-.64,3.11-.12.55-.24,1.08-.37,1.65-.26,1.12-.54,2.25-.83,3.4-.12.44-.22.89-.34,1.33-.42,1.58-.85,3.16-1.33,4.74-.08.28-.17.56-.26.82-.4,1.33-.82,2.65-1.25,3.99-.18.54-.37,1.08-.56,1.61-.37,1.09-.75,2.18-1.15,3.27-.21.57-.42,1.15-.62,1.72-.43,1.11-.87,2.23-1.32,3.35-.19.5-.39,1.02-.6,1.53-.67,1.61-1.34,3.22-2.05,4.82s-1.46,3.18-2.21,4.75c-.24.5-.48.98-.73,1.47-.53,1.08-1.07,2.16-1.61,3.22-.29.54-.58,1.08-.86,1.62-.54,1.03-1.1,2.04-1.66,3.04-.27.5-.54,1-.82,1.49-.7,1.21-1.41,2.42-2.13,3.6-.14.25-.28.49-.44.73-.86,1.43-1.75,2.81-2.64,4.18-.25.38-.51.74-.75,1.11-.66.99-1.32,1.97-1.99,2.93-.33.46-.64.89-.96,1.34-.64.89-1.27,1.75-1.91,2.61-.33.42-.64.84-.96,1.26-.74.96-1.47,1.89-2.21,2.8-.23.28-.45.55-.67.82-.97,1.19-1.96,2.34-2.95,3.44-.19.22-.38.4-.57.6-.8.9-1.61,1.76-2.42,2.61-.32.32-.63.64-.95.96-.7.71-1.41,1.41-2.12,2.08-.33.31-.66.63-.99.93-.76.71-1.52,1.37-2.27,2.04-.27.21-.52.45-.79.68-1,.84-2.01,1.65-3.01,2.41-1.49-17.96,3.27-41.28,13.36-63.94,7.01-15.74,15.98-29.8,25.64-40.56.41-.45.63-1.03.62-1.64-.06-3.12-.3-6.23-.74-9.27-.44-3.12-1.18-6.28-2.28-9.29-.24-.67-1.1-.87-1.63-.4-14.36,12.95-27.62,31.88-37.51,54.08-12.69,28.51-17.65,57.55-13.86,79.67-3.85,1-8.07,1.24-11.87-.46-15.71-7-19.36-45.86.49-90.45S81.51,12.2,97.38,18.47h.03c.17.07.34.15.5.22.76.34,1.48.75,2.15,1.21,2.2,1.49,3.92,3.54,5.27,5.79.1.16.2.31.29.48.2.31.38.65.56.98,2.18,4.18,3.5,8.95,4.18,13.6.97,6.75.96,13.82.2,20.6-.03.29-.05.58-.08.87-.04.33-.07.65-.1.97-.16,1.47-.35,2.96-.57,4.45-.05.37-.13.77-.19,1.14Z" transform="translate(15.344348676584232,18.735) scale(0.8190204791344667)" style="fill: url('#Dégradé_sans_nom_11');"/>
  </g>
</svg>