<?xml version="1.0" encoding="UTF-8"?>
<svg id="Calque_2" xmlns="http://www.w3.org/2000/svg" xmlns:xlink="http://www.w3.org/1999/xlink" viewBox="0 0 102 104">
  <defs>
    <style>
      .cls-2 {
        fill: url(#Dégradé_sans_nom_15);
      }
    </style>
    <linearGradient id="Dégradé_sans_nom_15" x1="-1854.43" y1="-836.07" x2="-1957.07" y2="-939.67" gradientTransform="translate(2145.74 -15.8) rotate(23) scale(1 -1)" gradientUnits="userSpaceOnUse">
      <stop offset="0" stop-color="#d311af" />
      <stop offset="1" stop-color="#6800ba" />
    </linearGradient>
  </defs>
  <g id="Calque_3" transform="translate(10, 10)">
    <path class="cls-2" d="m81.51,25.24c-.69-12.36-5.35-20.98-13.13-24.28L45.82-8.61c-7.77-3.3-17.22-.66-26.59,7.43-8.47,7.31-16.15,18.44-21.63,31.34C-7.88,43.06-10.54,56.3-9.91,67.48c.69,12.37,5.35,20.99,13.13,24.29l4.06,1.72c1.73.53,3.48.8,5.33.48,2.52-.45,5.01-1.45,7.24-2.7.89-.5,1.77-1.04,2.63-1.62l-.12-.05c.15-.08.3-.18.45-.27.28-.15.55-.31.81-.48h0l.17-.11c.37-.24.75-.46,1.12-.71.33-.22.66-.45.99-.68.37-.26.74-.52,1.11-.8.33-.25.66-.49.99-.75.3-.24.6-.48.9-.73.06-.05.12-.11.19-.16.33-.26.65-.55.98-.83.37-.32.73-.64,1.08-.97.32-.29.65-.59.97-.9.36-.34.72-.7,1.07-1.06.32-.32.64-.64.95-.97.36-.37.7-.76,1.05-1.14.31-.34.62-.68.93-1.03.35-.4.69-.81,1.03-1.22.3-.36.61-.72.9-1.1.34-.42.68-.85,1.01-1.29.3-.38.59-.76.88-1.15.33-.45.66-.91.99-1.37.29-.39.57-.79.85-1.19.32-.48.65-.97.97-1.46.27-.41.54-.81.8-1.23.33-.5.64-1.03.96-1.55.25-.42.51-.83.76-1.25.32-.54.63-1.1.94-1.65.24-.42.47-.83.7-1.25.33-.59.64-1.2.95-1.8.21-.41.42-.8.62-1.21.34-.67.66-1.36,1-2.05.17-.35.34-.69.5-1.05.48-1.05.96-2.11,1.41-3.19s.89-2.15,1.31-3.23c.14-.36.26-.72.4-1.08.26-.72.54-1.43.79-2.15.02-.04.03-.08.04-.12.14-.39.26-.77.39-1.16.22-.65.44-1.3.64-1.95.14-.45.27-.9.41-1.36.18-.62.37-1.23.54-1.84.13-.47.24-.93.36-1.4.16-.59.32-1.19.46-1.78.12-.47.21-.95.32-1.42.13-.58.27-1.16.38-1.73.09-.48.18-.94.27-1.41.1-.57.21-1.13.31-1.69.07-.47.14-.94.21-1.4.08-.56.16-1.11.23-1.65.06-.46.11-.92.16-1.39.06-.53.11-1.08.16-1.61.04-.46.07-.91.1-1.37.03-.52.07-1.04.09-1.56.02-.45.03-.9.04-1.35,0-.5.02-1.01.02-1.51,0-.44,0-.88-.02-1.31-.01-.49-.03-.98-.06-1.46-.02-.43-.05-.85-.08-1.28-.04-.47-.08-.94-.13-1.41-.04-.41-.09-.83-.14-1.23-.05-.46-.12-.91-.19-1.36-.06-.4-.13-.79-.2-1.18-.08-.44-.17-.87-.26-1.3-.09-.38-.17-.76-.27-1.13-.05-.17-.08-.34-.13-.51l7.11,3.02c8.6,3.65,10.96,24.75.59,49.19-10.29,24.25-26.93,37.19-35.59,33.83-2.46,2.25-5.2,4.29-8.09,5.92-.32.18-.65.36-.99.52l5.16,2.19c7.77,3.3,17.22.66,26.59-7.43,8.47-7.31,16.15-18.44,21.63-31.34,5.47-12.9,8.14-26.15,7.52-37.33h.03Zm-32.54,1.99c-.08.62-.17,1.24-.28,1.86-.05.29-.1.58-.15.87-.1.57-.21,1.13-.32,1.7-.06.3-.12.6-.18.9-.13.61-.28,1.24-.42,1.86-.06.24-.11.48-.17.72-.21.86-.43,1.73-.68,2.6-.04.14-.09.3-.13.45-.21.72-.42,1.44-.65,2.17-.09.3-.19.59-.29.88-.19.6-.39,1.19-.59,1.79-.11.31-.22.63-.33.94-.22.62-.45,1.22-.68,1.84-.11.28-.21.55-.32.83-.34.88-.7,1.76-1.07,2.64s-.76,1.74-1.16,2.6c-.12.27-.26.54-.38.81-.29.59-.56,1.18-.85,1.77-.15.3-.3.59-.45.89-.29.56-.58,1.13-.88,1.67-.14.27-.28.54-.43.81-.37.67-.74,1.33-1.12,1.98-.07.13-.15.26-.22.4-.46.78-.93,1.54-1.4,2.29-.13.21-.26.41-.4.61-.34.55-.7,1.08-1.06,1.62-.17.24-.34.49-.51.74-.33.48-.68.97-1.01,1.44-.17.23-.34.46-.51.69-.4.53-.78,1.04-1.18,1.55-.12.15-.23.3-.35.45-.51.65-1.04,1.28-1.57,1.9-.1.11-.2.22-.3.34-.43.49-.86.96-1.29,1.43-.17.18-.34.35-.51.53-.37.4-.75.78-1.13,1.16-.17.17-.35.34-.53.51-.4.39-.81.76-1.21,1.12-.14.13-.28.26-.43.38-.53.47-1.07.92-1.61,1.35-.98-9.76,1.38-22.49,6.65-34.91,3.74-8.82,8.62-16.69,13.89-22.69-.05-1.87-.21-3.73-.51-5.55-.31-1.95-.84-3.93-1.64-5.77-7.91,7.19-15.16,17.82-20.46,30.3-6.63,15.62-9.05,31.46-6.78,43.45-2.08.58-4.38.76-6.46-.13-8.61-3.65-10.96-24.75-.59-49.2C16.69,9.37,33.16-3.27,41.84,0h0c.09.04.18.07.26.11.41.18.81.39,1.18.63,1.21.8,2.17,1.91,2.93,3.12.05.07.11.16.16.24.11.17.21.35.32.53,1.22,2.26,2,4.83,2.4,7.36.59,3.66.66,7.51.31,11.2h0c-.02.16-.02.32-.04.48,0,.17-.03.35-.04.53-.07.79-.16,1.61-.26,2.42-.03.21-.07.42-.1.63v-.02Z" />
  </g>
</svg>
